<svg width="111" height="133" viewBox="0 0 111 133" fill="none" xmlns="http://www.w3.org/2000/svg">
<g clip-path="url(#clip0_8332_37184)">
<path d="M68.976 71.1338C75.2592 71.1338 81.0251 71.1717 86.791 71.1275C98.7454 71.0263 105.029 78.6427 102.537 90.3675C100.726 98.8814 98.9031 107.389 96.8907 115.852C94.6891 125.081 87.4092 131.635 77.934 131.964C66.295 132.368 54.6055 132.337 42.9854 131.705C38.5885 131.464 34.7025 130.263 29.9271 131.736C24.8425 133.31 18.9 132.292 13.3486 132.059C9.43107 131.888 6.70584 128.923 6.68061 125.005C6.59229 111.219 6.58598 97.4277 6.68692 83.6423C6.71215 79.8942 9.42476 76.8413 13.1719 76.7908C19.6381 76.7023 26.2871 78.1687 32.5198 77.0625C36.9925 76.2661 41.0298 72.5117 44.9726 69.6674C45.7296 69.1238 45.1114 66.6588 45.1114 65.0849C45.1114 58.9792 45.1555 52.8734 45.0861 46.774C45.0546 44.1383 46.1964 42.969 48.8144 42.8426C61.1915 42.2484 68.9697 49.5993 68.9823 61.9752C68.976 64.889 68.976 67.8154 68.976 71.1338ZM50.5934 48.6639C50.5934 55.9263 50.4861 62.9675 50.6565 70.0024C50.7132 72.3979 50.095 73.9591 48.0006 75.1853C45.0104 76.9298 42.2347 79.0346 39.2446 80.7728C37.2322 81.9421 36.3995 83.2631 36.4436 85.7534C36.6329 96.2836 36.5193 106.814 36.5193 117.344C36.5193 124.923 37.4908 125.984 45.1114 126.705C45.7359 126.762 46.373 126.762 47.0039 126.762C56.6747 126.768 66.3454 126.812 76.0162 126.749C83.8449 126.699 90.0965 121.522 91.7809 113.893C93.5914 105.695 95.4082 97.5035 97.2314 89.312C98.9977 81.3669 95.2442 76.5379 87.1632 76.4747C80.5393 76.4242 73.9218 76.4115 67.298 76.4874C64.4845 76.519 63.2922 75.356 63.3679 72.518C63.4814 68.2073 63.4751 63.884 63.3742 59.5733C63.2102 52.9872 57.684 48.1329 50.5934 48.6639ZM12.2257 104.241C12.2257 110.758 12.2698 117.281 12.2005 123.797C12.1752 125.959 13.0269 126.838 15.1843 126.793C19.3794 126.711 23.5808 126.705 27.7759 126.793C30.1731 126.844 31.1887 125.883 31.1824 123.443C31.132 110.72 31.132 97.9965 31.1824 85.2731C31.195 82.8143 30.1289 81.9042 27.7443 81.9547C23.6502 82.0432 19.556 82.0685 15.4682 81.9421C12.9827 81.8662 12.15 82.8839 12.1878 85.3047C12.2951 91.619 12.2194 97.927 12.2257 104.241Z" fill="black"/>
<path d="M52.674 18.7542C52.674 14.0263 52.7118 9.29217 52.655 4.56432C52.6361 2.50379 53.2543 0.847782 55.5001 0.860423C57.7459 0.873065 58.3452 2.567 58.3389 4.59593C58.3137 14.0579 58.3074 23.5136 58.3452 32.9756C58.3515 35.0425 57.6765 36.6922 55.4686 36.6795C53.248 36.6669 52.6298 35.0046 52.655 32.9377C52.7181 28.2099 52.674 23.482 52.674 18.7542Z" fill="black"/>
<path d="M18.4189 15.7837C19.4094 16.479 20.2484 16.9088 20.8855 17.5408C27.667 24.285 34.4044 31.0733 41.1859 37.8238C42.6306 39.2586 43.3813 40.8261 41.7726 42.4631C40.2208 44.0433 38.7383 43.1584 37.4324 41.8437C30.6004 34.9921 23.7306 28.1911 16.9995 21.2447C16.2425 20.4673 15.9523 18.8682 16.0911 17.7305C16.1668 17.0478 17.4979 16.5106 18.4189 15.7837Z" fill="black"/>
<path d="M70.9938 43.6891C70.0728 42.9117 68.8111 42.3555 68.6849 41.6033C68.502 40.5414 68.8111 39.0182 69.5176 38.2534C72.8737 34.6316 76.4253 31.1995 79.9139 27.7042C83.1816 24.4301 86.4746 21.1876 89.7108 17.8819C91.1618 16.4029 92.7199 15.2272 94.5304 17.0602C96.2211 18.7731 95.0856 20.2585 93.7104 21.6301C87.0108 28.3047 80.3555 35.0235 73.6496 41.6918C72.9368 42.4123 72.0284 42.9243 70.9938 43.6891Z" fill="black"/>
<path d="M18.3379 53.4166C23.0502 53.4166 27.7626 53.4482 32.475 53.404C34.4558 53.385 36.2159 53.7579 36.1906 56.1345C36.1654 58.3025 34.4937 58.7513 32.639 58.7513C23.107 58.7449 13.5813 58.7449 4.04935 58.7513C2.10636 58.7513 0.283233 58.4163 0.346317 55.9955C0.409401 53.5873 2.25776 53.3913 4.18813 53.404C8.90681 53.4419 13.6255 53.4166 18.3379 53.4166Z" fill="black"/>
<path d="M92.7249 58.7454C88.0125 58.7454 83.3001 58.739 78.5814 58.7454C76.67 58.7454 74.7901 58.4988 74.7964 56.0717C74.8027 53.6636 76.6195 53.3981 78.5688 53.4044C87.9936 53.4297 97.4246 53.436 106.849 53.4044C108.805 53.3981 110.622 53.6699 110.641 56.0591C110.66 58.4736 108.792 58.758 106.868 58.7517C102.15 58.7327 97.4372 58.7454 92.7249 58.7454Z" fill="black"/>
<path d="M50.5927 48.6642C57.6834 48.1332 63.2095 52.9938 63.3609 59.5863C63.4619 63.8969 63.4682 68.2203 63.3546 72.5309C63.2789 75.3689 64.4712 76.5319 67.2847 76.5003C73.9086 76.4245 80.5261 76.4371 87.1499 76.4877C95.231 76.5509 98.9845 81.3799 97.2181 89.3249C95.4013 97.5165 93.5782 105.708 91.7676 113.906C90.0833 121.535 83.8317 126.705 76.003 126.762C66.3322 126.825 56.6614 126.781 46.9906 126.775C46.3598 126.775 45.729 126.775 45.0981 126.718C37.4776 125.997 36.5061 124.929 36.5061 117.357C36.5061 106.827 36.6133 96.2903 36.4304 85.7664C36.3862 83.276 37.2189 81.9613 39.2313 80.7857C42.2215 79.0475 44.9972 76.9364 47.9874 75.1983C50.0817 73.9721 50.7 72.4109 50.6432 70.0153C50.4855 62.9678 50.5927 55.9203 50.5927 48.6642Z" fill="white"/>
<path d="M12.2246 104.241C12.2246 97.9332 12.2939 91.6189 12.1867 85.3109C12.1425 82.8838 12.9816 81.8724 15.4671 81.9483C19.5549 82.0747 23.6554 82.0494 27.7432 81.9609C30.1215 81.9104 31.1876 82.8142 31.1813 85.2793C31.1308 98.0027 31.1308 110.726 31.1813 123.45C31.1939 125.889 30.1719 126.85 27.7748 126.8C23.5797 126.711 19.3783 126.717 15.1832 126.8C13.0257 126.838 12.1804 125.959 12.1993 123.804C12.2687 117.281 12.2246 110.758 12.2246 104.241Z" fill="white"/>
</g>
<defs>
<clipPath id="clip0_8332_37184">
<rect width="110.29" height="131.735" fill="white" transform="translate(0.35498 0.86084)"/>
</clipPath>
</defs>
</svg>
