<svg width="80" height="82" viewBox="0 0 80 82" fill="none" xmlns="http://www.w3.org/2000/svg">
<circle cx="40" cy="41.7866" r="40" fill="white"/>
<circle cx="40" cy="41.7866" r="40" fill="white"/>
<rect y="0.786621" width="80" height="80" rx="40" fill="#FFE4D4"/>
<path fill-rule="evenodd" clip-rule="evenodd" d="M51.5599 33.9867C51.5599 31.574 49.765 29.5806 47.4376 29.269C47.4655 29.4776 47.4799 29.6905 47.4799 29.9067C47.4799 32.5356 45.3488 34.6667 42.7199 34.6667H37.2799C34.6511 34.6667 32.5199 32.5356 32.5199 29.9067C32.5199 29.6905 32.5344 29.4776 32.5623 29.269C30.2349 29.5806 28.4399 31.574 28.4399 33.9867V50.3067C28.4399 52.9356 30.5711 55.0667 33.1999 55.0667H46.7999C49.4288 55.0667 51.5599 52.9356 51.5599 50.3067V33.9867ZM45.4399 44.1867H34.5599C34.1844 44.1867 33.8799 43.8823 33.8799 43.5067C33.8799 43.1311 34.1844 42.8267 34.5599 42.8267H45.4399C45.8155 42.8267 46.1199 43.1311 46.1199 43.5067C46.1199 43.8823 45.8155 44.1867 45.4399 44.1867ZM34.5599 38.7467H45.4399C45.8155 38.7467 46.1199 38.4423 46.1199 38.0667C46.1199 37.6911 45.8155 37.3867 45.4399 37.3867H34.5599C34.1844 37.3867 33.8799 37.6911 33.8799 38.0667C33.8799 38.4423 34.1844 38.7467 34.5599 38.7467ZM45.4399 49.6267H34.5599C34.1844 49.6267 33.8799 49.3223 33.8799 48.9467C33.8799 48.5711 34.1844 48.2667 34.5599 48.2667H45.4399C45.8155 48.2667 46.1199 48.5711 46.1199 48.9467C46.1199 49.3223 45.8155 49.6267 45.4399 49.6267Z" fill="#FF8700"/>
<path d="M37.2799 26.5068H42.7199C44.5977 26.5068 46.1199 28.0291 46.1199 29.9068C46.1199 31.7846 44.5977 33.3068 42.7199 33.3068H37.2799C35.4021 33.3068 33.8799 31.7846 33.8799 29.9068C33.8799 28.0291 35.4021 26.5068 37.2799 26.5068Z" fill="#FF8700"/>
</svg>
