<svg width="80" height="82" viewBox="0 0 80 82" fill="none" xmlns="http://www.w3.org/2000/svg">
<circle cx="40" cy="41.7866" r="40" fill="white"/>
<circle cx="40" cy="41.7866" r="40" fill="white"/>
<rect y="0.786621" width="80" height="80" rx="40" fill="#FFE4D4"/>
<path fill-rule="evenodd" clip-rule="evenodd" d="M31.8401 55.0675H32.8823L33.4682 53.9348C33.749 53.392 33.8801 52.8795 33.8801 52.3757C33.8801 51.861 33.7431 51.3285 33.449 50.7576L32.1661 48.2675H50.2001V27.1875C50.2001 26.7123 49.7251 26.3836 49.2804 26.5511L44.1128 28.4971L38.8771 26.5501C38.7218 26.4924 38.5508 26.4933 38.3961 26.5527L33.2951 28.5131L27.9963 26.5498C27.5522 26.3853 27.0801 26.7138 27.0801 27.1875V50.3075C27.0801 52.9363 29.2112 55.0675 31.8401 55.0675ZM33.2001 34.6668H38.6401C39.0156 34.6668 39.3201 34.9713 39.3201 35.3468C39.3201 35.7224 39.0156 36.0268 38.6401 36.0268H33.2001C32.8245 36.0268 32.5201 35.7224 32.5201 35.3468C32.5201 34.9713 32.8245 34.6668 33.2001 34.6668ZM33.2001 40.1068C32.8245 40.1068 32.5201 40.4113 32.5201 40.7868C32.5201 41.1624 32.8245 41.4668 33.2001 41.4668H44.0801C44.4556 41.4668 44.7601 41.1624 44.7601 40.7868C44.7601 40.4113 44.4556 40.1068 44.0801 40.1068H33.2001ZM54.9881 53.0262C54.9881 51.1703 53.5011 49.6618 51.6536 49.6268H33.8801C34.9959 50.7434 35.5919 51.8772 35.5941 53.0504C35.5963 54.2233 35.0049 55.3405 33.8935 56.4262H51.5881C53.4658 56.4262 54.9881 54.904 54.9881 53.0262Z" fill="#FF8700"/>
</svg>
