<svg width="80" height="82" viewBox="0 0 80 82" fill="none" xmlns="http://www.w3.org/2000/svg">
<circle cx="40" cy="41.7866" r="40" fill="white"/>
<circle cx="40" cy="41.7866" r="40" fill="white"/>
<rect y="0.786621" width="80" height="80" rx="40" fill="#FFE4D4"/>
<path fill-rule="evenodd" clip-rule="evenodd" d="M54.2802 34.6668H25.7202V28.5468C25.7202 27.4202 26.6336 26.5068 27.7602 26.5068H52.2402C53.3669 26.5068 54.2802 27.4202 54.2802 28.5468V34.6668ZM32.5202 30.5868C32.5202 31.3379 31.9113 31.9468 31.1602 31.9468C30.4091 31.9468 29.8002 31.3379 29.8002 30.5868C29.8002 29.8357 30.4091 29.2268 31.1602 29.2268C31.9113 29.2268 32.5202 29.8357 32.5202 30.5868ZM35.2402 31.9468C35.9913 31.9468 36.6002 31.3379 36.6002 30.5868C36.6002 29.8357 35.9913 29.2268 35.2402 29.2268C34.4891 29.2268 33.8802 29.8357 33.8802 30.5868C33.8802 31.3379 34.4891 31.9468 35.2402 31.9468Z" fill="#FF8700"/>
<path fill-rule="evenodd" clip-rule="evenodd" d="M54.2802 50.3069V36.0269H25.7202V50.3069C25.7202 52.9357 27.8513 55.0669 30.4802 55.0669H49.5202C52.1491 55.0669 54.2802 52.9357 54.2802 50.3069ZM44.5581 41.6631C44.2909 41.3991 43.8603 41.4018 43.5964 41.669L38.6994 46.6269L36.3964 44.3679C36.1283 44.1049 35.6977 44.1091 35.4348 44.3772C35.1718 44.6453 35.1759 45.0759 35.4441 45.3388L38.2309 48.0723C38.4983 48.3346 38.9276 48.3312 39.1909 48.0647L44.564 42.6247C44.8279 42.3575 44.8253 41.927 44.5581 41.6631Z" fill="#FF8700"/>
</svg>
