<svg width="50" height="37" viewBox="0 0 50 37" fill="none" xmlns="http://www.w3.org/2000/svg">
<path fill-rule="evenodd" clip-rule="evenodd" d="M42.9372 0.43282C42.7793 0.512168 39.0324 4.11028 34.6109 8.42871C19.9437 22.7536 19.4379 23.2377 19.0072 23.361C18.1473 23.6073 18.3366 23.7638 12.6822 18.1303C9.84793 15.3065 7.42468 12.914 7.29721 12.8134C6.95544 12.5443 6.08281 12.5078 5.70803 12.747C5.14691 13.1053 0.919246 16.9119 0.70793 17.249C0.460533 17.644 0.433831 18.0709 0.628207 18.5268C0.794447 18.9167 11.0744 29.4904 15.0532 33.3639C17.3879 35.6369 17.9267 36.1159 18.2423 36.1992C19.1112 36.4286 18.056 37.3912 34.286 21.5623C45.6478 10.4811 49.2271 6.93733 49.3421 6.65577C49.7255 5.71664 49.5874 5.50242 46.8843 2.84475C45.6127 1.59461 44.4348 0.507759 44.2666 0.429631C43.8751 0.247489 43.3035 0.248896 42.9372 0.43282Z" fill="black"/>
</svg>
